<?xml version="1.0" standalone="no"?>
<!DOCTYPE svg PUBLIC "-//W3C//DTD SVG 20010904//EN"
 "http://www.w3.org/TR/2001/REC-SVG-20010904/DTD/svg10.dtd">
<svg version="1.0" xmlns="http://www.w3.org/2000/svg"
 width="237pt" height="237pt" viewBox="0 0 237 237"
 preserveAspectRatio="xMidYMid meet">
<metadata>
Created by potrace 1.14, written by Peter Selinger 2001-2017
</metadata>
<g transform="translate(0,237) scale(0.1,-0.1)" fill="#000000" stroke="none">
<path d="M1607 2185 c-1 -2 -22 -5 -47 -8 -25 -4 -61 -11 -80 -17 -19 -5 -118
-26 -220 -46 -171 -32 -465 -91 -500 -100 -286 -70 -465 -152 -509 -234 -13
-25 -71 -116 -128 -202 -57 -86 -106 -164 -109 -172 -3 -8 4 -29 15 -45 12
-16 21 -32 21 -35 0 -16 113 -111 220 -184 41 -28 102 -76 135 -107 33 -31 80
-73 103 -93 24 -20 64 -56 88 -79 25 -23 102 -92 172 -154 70 -62 129 -116
132 -119 3 -3 68 -60 145 -126 184 -159 342 -276 368 -272 13 2 36 35 74 108
77 149 190 328 261 415 5 6 27 46 49 90 62 123 341 585 465 768 51 77 88 143
98 177 10 34 -1 47 -115 140 -49 41 -129 109 -176 151 -101 90 -113 97 -171
104 -65 8 -120 16 -153 21 -55 10 -135 21 -138 19z"/>
</g>
</svg>
